<svg width="99" height="98" xmlns="http://www.w3.org/2000/svg" xmlns:xlink="http://www.w3.org/1999/xlink" xml:space="preserve" overflow="hidden"><defs><clipPath id="clip0"><rect x="589" y="308" width="99" height="97"/></clipPath></defs><g transform="translate(-589 -308)"><path d="M52.678 52.259 148.867 52.259 148.867 148.448 52.678 148.448Z" fill="#FFFFFF" transform="matrix(1.01362 0 0 1 536.311 256.682)"/><g clip-path="url(#clip0)"><path d="M0.00151695-6.01431e-05 96.1908-6.01431e-05 96.1908 96.1892 0.00151695 96.1892Z" stroke="#0097B2" stroke-width="7.9203" fill="none" transform="matrix(1.01362 0 0 1 589.705 308.941)"/></g><path d="M32.6735 0 16.4919 0 16.4919-18.6233-1.40709-57.6701 15.0848-57.6701 24.769-33.646 34.5358-57.6701 50.3449-57.6701 32.6735-18.5612Z" fill="#0097B2" transform="matrix(1.01362 0 0 1 616.882 388.921)"/><path d="M50.3198 79.0038 34.1279 79.0038 34.1279 60.3753 16.2444 21.3388 32.7415 21.3388 42.4153 45.3577 52.177 21.3388 67.9861 21.3388 50.3198 60.4477Z" stroke="#545454" stroke-width="2.77254" fill="none" transform="matrix(1.01362 0 0 1 594.016 306.551)"/></g></svg>