<svg xmlns="http://www.w3.org/2000/svg" xmlns:xlink="http://www.w3.org/1999/xlink" width="561" zoomAndPan="magnify" viewBox="0 0 420.75 155.999997" height="208" preserveAspectRatio="xMidYMid meet" version="1.0"><defs><g/><clipPath id="bcf8733034"><path d="M 39.882812 39.359375 L 112.707031 39.359375 L 112.707031 112.183594 L 39.882812 112.183594 Z M 39.882812 39.359375 " clip-rule="nonzero"/></clipPath><clipPath id="f73d4bdfbb"><path d="M 39.882812 39.359375 L 112.589844 39.359375 L 112.589844 112.066406 L 39.882812 112.066406 Z M 39.882812 39.359375 " clip-rule="nonzero"/></clipPath></defs><g clip-path="url(#bcf8733034)"><path fill="#ffffff" d="M 39.882812 39.359375 L 112.707031 39.359375 L 112.707031 112.183594 L 39.882812 112.183594 Z M 39.882812 39.359375 " fill-opacity="1" fill-rule="nonzero"/></g><g clip-path="url(#f73d4bdfbb)"><path stroke-linecap="butt" transform="matrix(0.749555, 0, 0, 0.749555, 39.881227, 39.359221)" fill="none" stroke-linejoin="miter" d="M 0.00211479 0.000205929 L 97.158777 0.000205929 L 97.158777 97.156869 L 0.00211479 97.156869 Z M 0.00211479 0.000205929 " stroke="#0097b2" stroke-width="8" stroke-opacity="1" stroke-miterlimit="4"/></g><g fill="#000000" fill-opacity="1"><g transform="translate(114.563945, 66.469028)"><g><path d="M 11.5625 0 L 10.4375 0 L 10.4375 -10.296875 L 2.5625 -19.578125 L 4.078125 -19.578125 L 11.5625 -10.734375 Z M 19.0625 -19.578125 L 12.734375 -12.109375 L 11.96875 -13 L 17.546875 -19.578125 Z M 19.0625 -19.578125 "/></g></g></g><g fill="#000000" fill-opacity="1"><g transform="translate(140.222505, 66.469028)"><g><path d="M 10 -0.953125 L 10 0.15625 C 9.601562 0.125 9.203125 0.0625 8.796875 -0.03125 C 8.390625 -0.132812 8 -0.269531 7.625 -0.4375 C 6.664062 -0.8125 5.816406 -1.367188 5.078125 -2.109375 C 3.515625 -3.640625 2.734375 -5.492188 2.734375 -7.671875 L 2.734375 -19.671875 L 3.890625 -19.671875 L 3.890625 -7.890625 C 3.890625 -7.003906 4.0625 -6.113281 4.40625 -5.21875 C 4.75 -4.332031 5.242188 -3.566406 5.890625 -2.921875 C 7.066406 -1.765625 8.4375 -1.109375 10 -0.953125 Z M 11.78125 0.109375 L 11.78125 -1 C 13.238281 -1.25 14.519531 -1.898438 15.625 -2.953125 C 16.3125 -3.578125 16.832031 -4.335938 17.1875 -5.234375 C 17.550781 -6.140625 17.734375 -7.035156 17.734375 -7.921875 L 17.734375 -19.671875 L 18.890625 -19.671875 L 18.890625 -7.671875 C 18.890625 -6.628906 18.664062 -5.601562 18.21875 -4.59375 C 17.769531 -3.632812 17.164062 -2.804688 16.40625 -2.109375 C 15.632812 -1.367188 14.769531 -0.8125 13.8125 -0.4375 C 13.113281 -0.144531 12.4375 0.0351562 11.78125 0.109375 Z M 11.78125 0.109375 "/></g></g></g><g fill="#000000" fill-opacity="1"><g transform="translate(165.881064, 66.469028)"><g><path d="M 6 0 L 4.84375 0 L 4.84375 -19.84375 L 6 -19.84375 Z M 6 0 "/></g></g></g><g fill="#000000" fill-opacity="1"><g transform="translate(114.563945, 104.314375)"><g><path d="M 11.5625 0 L 10.4375 0 L 10.4375 -10.296875 L 2.5625 -19.578125 L 4.078125 -19.578125 L 11.5625 -10.734375 Z M 19.0625 -19.578125 L 12.734375 -12.109375 L 11.96875 -13 L 17.546875 -19.578125 Z M 19.0625 -19.578125 "/></g></g></g><g fill="#000000" fill-opacity="1"><g transform="translate(140.222505, 104.314375)"><g><path d="M 20.765625 0 L 19.484375 0 L 10.078125 -19.46875 L 10.734375 -20.8125 Z M 2.15625 0 L 0.859375 0 L 9.109375 -17.40625 L 9.734375 -16.0625 L 5.03125 -6.078125 L 14.5625 -6.078125 L 15.109375 -4.921875 L 4.546875 -4.921875 Z M 2.15625 0 "/></g></g></g><g fill="#000000" fill-opacity="1"><g transform="translate(165.881064, 104.314375)"><g><path d="M 24 0 L 22.84375 0 L 22.84375 -19.84375 L 24 -19.84375 Z M 13.8125 -8.625 L 12.96875 -7.703125 L 3.03125 -19.546875 L 4.515625 -19.546875 Z M 21.484375 -16.953125 L 14.96875 -9.921875 L 14.140625 -10.765625 L 21.484375 -18.703125 Z M 4.375 0 L 3.21875 0 L 3.21875 -16.78125 L 4.375 -15.65625 Z M 4.375 0 "/></g></g></g><g fill="#000000" fill-opacity="1"><g transform="translate(196.946941, 104.314375)"><g><path d="M 20.765625 0 L 19.484375 0 L 10.078125 -19.46875 L 10.734375 -20.8125 Z M 2.15625 0 L 0.859375 0 L 9.109375 -17.40625 L 9.734375 -16.0625 L 5.03125 -6.078125 L 14.5625 -6.078125 L 15.109375 -4.921875 L 4.546875 -4.921875 Z M 2.15625 0 "/></g></g></g><g fill="#000000" fill-opacity="1"><g transform="translate(222.6055, 104.314375)"><g><path d="M 15.875 -18.359375 L 15.875 -17.140625 C 15.019531 -17.460938 14.351562 -17.703125 13.875 -17.859375 C 13.40625 -18.023438 13.015625 -18.144531 12.703125 -18.21875 C 12.398438 -18.289062 12.066406 -18.34375 11.703125 -18.375 L 11.703125 -19.546875 C 12.347656 -19.492188 13.003906 -19.367188 13.671875 -19.171875 C 14.335938 -18.984375 15.070312 -18.710938 15.875 -18.359375 Z M 11.78125 0.1875 L 11.78125 -0.96875 C 12.5625 -1.15625 13.222656 -1.5 13.765625 -2 C 14.609375 -2.789062 15.03125 -3.773438 15.03125 -4.953125 C 15.03125 -5.742188 14.910156 -6.382812 14.671875 -6.875 C 14.441406 -7.375 14.082031 -7.789062 13.59375 -8.125 C 13.101562 -8.457031 12.484375 -8.78125 11.734375 -9.09375 C 10.992188 -9.40625 10.109375 -9.78125 9.078125 -10.21875 C 8.523438 -10.46875 8.035156 -10.738281 7.609375 -11.03125 C 7.179688 -11.332031 6.816406 -11.707031 6.515625 -12.15625 C 5.953125 -12.957031 5.671875 -13.878906 5.671875 -14.921875 C 5.671875 -16.128906 6.113281 -17.175781 7 -18.0625 C 7.289062 -18.34375 7.679688 -18.625 8.171875 -18.90625 C 8.671875 -19.1875 9.28125 -19.378906 10 -19.484375 L 10 -18.328125 C 9.5 -18.234375 9.0625 -18.078125 8.6875 -17.859375 C 8.320312 -17.648438 8.039062 -17.445312 7.84375 -17.25 C 7.15625 -16.59375 6.8125 -15.816406 6.8125 -14.921875 C 6.8125 -14.085938 7.050781 -13.363281 7.53125 -12.75 C 8.007812 -12.144531 8.6875 -11.648438 9.5625 -11.265625 C 10.539062 -10.859375 11.332031 -10.519531 11.9375 -10.25 C 12.539062 -9.988281 13.03125 -9.753906 13.40625 -9.546875 C 13.78125 -9.347656 14.101562 -9.132812 14.375 -8.90625 C 14.644531 -8.675781 14.925781 -8.382812 15.21875 -8.03125 C 15.851562 -7.175781 16.171875 -6.148438 16.171875 -4.953125 C 16.171875 -3.421875 15.628906 -2.15625 14.546875 -1.15625 C 13.785156 -0.414062 12.863281 0.03125 11.78125 0.1875 Z M 10.03125 -0.953125 L 10.03125 0.21875 C 8.96875 0.125 8.046875 -0.09375 7.265625 -0.4375 C 6.492188 -0.789062 5.890625 -1.113281 5.453125 -1.40625 L 5.453125 -2.859375 C 5.523438 -2.804688 5.679688 -2.6875 5.921875 -2.5 C 6.171875 -2.3125 6.492188 -2.109375 6.890625 -1.890625 C 7.253906 -1.710938 7.703125 -1.523438 8.234375 -1.328125 C 8.765625 -1.140625 9.363281 -1.015625 10.03125 -0.953125 Z M 10.03125 -0.953125 "/></g></g></g><g fill="#000000" fill-opacity="1"><g transform="translate(248.26406, 104.314375)"><g><path d="M 4.109375 0 L 2.96875 0 L 2.96875 -19.84375 L 4.109375 -19.84375 Z M 18.65625 0 L 17.515625 0 L 17.515625 -19.84375 L 18.65625 -19.84375 Z M 15.734375 -9.703125 L 5.890625 -9.703125 L 5.890625 -10.859375 L 15.734375 -10.859375 Z M 15.734375 -9.703125 "/></g></g></g><g fill="#000000" fill-opacity="1"><g transform="translate(273.92262, 104.314375)"><g><path d="M 6 0 L 4.84375 0 L 4.84375 -19.84375 L 6 -19.84375 Z M 6 0 "/></g></g></g><g fill="#000000" fill-opacity="1"><g transform="translate(288.766546, 104.314375)"><g><path d="M 17.96875 -18.59375 L 3.625 -18.59375 L 3.625 -19.734375 L 17.96875 -19.734375 Z M 11.625 0 L 10.4375 0 L 10.4375 -16.890625 L 11.625 -16.890625 Z M 11.625 0 "/></g></g></g><g fill="#000000" fill-opacity="1"><g transform="translate(314.425106, 104.314375)"><g><path d="M 20.765625 0 L 19.484375 0 L 10.078125 -19.46875 L 10.734375 -20.8125 Z M 2.15625 0 L 0.859375 0 L 9.109375 -17.40625 L 9.734375 -16.0625 L 5.03125 -6.078125 L 14.5625 -6.078125 L 15.109375 -4.921875 L 4.546875 -4.921875 Z M 2.15625 0 "/></g></g></g><g fill="#0097b2" fill-opacity="1"><g transform="translate(60.179822, 99.912095)"><g><path d="M 24.734375 0 L 12.484375 0 L 12.484375 -14.109375 L -1.0625 -43.65625 L 11.421875 -43.65625 L 18.75 -25.46875 L 26.140625 -43.65625 L 38.109375 -43.65625 L 24.734375 -14.046875 Z M 24.734375 0 "/></g></g></g><path stroke-linecap="butt" transform="matrix(0.687497, 0, 0, 0.687497, 43.10122, 37.549976)" fill="none" stroke-linejoin="miter" d="M 55.409814 87.001524 L 37.585878 87.001524 L 37.585878 66.490078 L 17.886935 23.495585 L 36.051781 23.495585 L 46.705234 49.950238 L 57.460959 23.495585 L 74.87012 23.495585 L 55.409814 66.569623 Z M 55.409814 87.001524 " stroke="#545454" stroke-width="3.053227" stroke-opacity="1" stroke-miterlimit="4"/></svg>